<svg enable-background="new 0 0 1028 529.6" viewBox="0 0 1028 529.6" xmlns="http://www.w3.org/2000/svg"><path d="m698.9 516.3h-369.8c-36.7 0-66.6-29.9-66.6-66.6v-369.8c0-36.7 29.9-66.6 66.6-66.6h369.7c36.7 0 66.6 29.9 66.6 66.6v369.7c.1 36.8-29.8 66.7-66.5 66.7zm-369.8-497.1c-33.5 0-60.7 27.2-60.7 60.7v369.7c0 33.5 27.2 60.7 60.7 60.7h369.7c33.5 0 60.7-27.2 60.7-60.7v-369.7c0-33.5-27.2-60.7-60.7-60.7z" fill="#a71831"/><path d="m280.5 376.4h467" style="fill:none;stroke:#294356;stroke-width:5;stroke-linecap:round;stroke-linejoin:round;stroke-miterlimit:10"/><path d="m689.5 356.9h-339v-191.9c0-9 7.3-16.3 16.3-16.3h306.3c9 0 16.3 7.3 16.3 16.3v191.9z" style="fill:#e4eef2;stroke:#284356;stroke-width:5;stroke-linecap:round;stroke-linejoin:round;stroke-miterlimit:10"/><path d="m367.9 170.5h304.3v164.5h-304.3z" fill="#ffeecf" stroke="#284356" stroke-linejoin="round" stroke-miterlimit="10" stroke-width="4"/><path d="m715.1 366.9c-5.7 5.4-13.3 8.4-21.1 8.4h-346.1c-7.9 0-15.6-2.8-21.5-8l-8.5-7.4c-1.6-1.4-.6-4 1.5-4h401.3c2.2 0 3.3 2.7 1.7 4.2z" style="fill:#e4eef2;stroke:#284356;stroke-width:5;stroke-linecap:round;stroke-linejoin:round;stroke-miterlimit:10"/><path d="m524.4 160.2c0 2.4-2 4.4-4.4 4.4s-4.4-2-4.4-4.4 2-4.4 4.4-4.4c2.5 0 4.4 2 4.4 4.4z" fill="#284356"/><g stroke-miterlimit="10"><path d="m436.4 200.2h-116.2c-4.7 0-8.6 3.8-8.6 8.6v158.9c0 4.7 3.8 8.6 8.6 8.6h116.1c4.7 0 8.6-3.8 8.6-8.6v-158.9c.1-4.8-3.8-8.6-8.5-8.6z" fill="#ecf0f1" stroke="#284356" stroke-linecap="round" stroke-linejoin="round" stroke-width="5"/><path d="m323.4 216.1h109.8v136.3h-109.8z" fill="#fff" stroke="#284356" stroke-linecap="round" stroke-linejoin="round" stroke-width="3"/><path d="m385.2 211.5c0-3.8-3.1-6.9-6.9-6.9s-6.9 3.1-6.9 6.9h-16.8c-1.5 0-2.7 1.2-2.7 2.7v2.4c0 2.5 2 4.5 4.5 4.5h43.7c2.5 0 4.5-2 4.5-4.5v-2.4c0-1.5-1.2-2.7-2.7-2.7z" fill="#fff" stroke="#284356" stroke-linecap="round" stroke-linejoin="round" stroke-width="3"/><path d="m360.1 236.8h61.9" fill="none" stroke="#d8dbd7" stroke-linecap="round" stroke-linejoin="round" stroke-width="3"/><path d="m360.1 247.8h51.8" fill="none" stroke="#d8dbd7" stroke-linecap="round" stroke-linejoin="round" stroke-width="3"/><path d="m360.1 258.9h61.9" fill="none" stroke="#d8dbd7" stroke-linecap="round" stroke-linejoin="round" stroke-width="3"/><path d="m360.1 273h37.5" fill="none" stroke="#d8dbd7" stroke-linecap="round" stroke-linejoin="round" stroke-width="3"/><path d="m360.1 284.1h61.9" fill="none" stroke="#d8dbd7" stroke-linecap="round" stroke-linejoin="round" stroke-width="3"/><path d="m333.1 273v17.8h17.8v-17.8z" fill="#fff" stroke="#284356" stroke-linecap="round" stroke-linejoin="round" stroke-width="3"/><path d="m337 281.5 4.9 4.5 10.1-9.9" fill="none" stroke="#a71831" stroke-linecap="round" stroke-linejoin="round" stroke-width="3"/><path d="m333.1 310.1v17.8h17.8v-17.8z" fill="#fff" stroke="#284356" stroke-linecap="round" stroke-linejoin="round" stroke-width="3"/><path d="m337 318.6 4.9 4.5 10.1-9.9" fill="none" stroke="#a71831" stroke-linecap="round" stroke-linejoin="round" stroke-width="3"/><path d="m360.1 311h54.5" fill="none" stroke="#d8dbd7" stroke-linecap="round" stroke-linejoin="round" stroke-width="3"/><path d="m360.1 322.1h48" fill="none" stroke="#d8dbd7" stroke-linecap="round" stroke-linejoin="round" stroke-width="3"/><path d="m333.1 235.9v17.8h17.8v-17.8z" fill="#fff" stroke="#284356" stroke-linecap="round" stroke-linejoin="round" stroke-width="3"/><path d="m337 244.3 4.9 4.6 10.1-9.9" fill="none" stroke="#a71831" stroke-linecap="round" stroke-linejoin="round" stroke-width="3"/><path d="m419.5 362.2 45.2-17.5c5.6 10.1 14.5 18.6 25.9 23.6 27.9 12.4 60.5-.2 72.9-28.1s-.2-60.5-28.1-72.9-60.5.2-72.9 28.1c-5.3 12.1-6 25-2.8 36.9l-45 17.4zm75.7-4.2c-22.2-9.8-32.2-35.8-22.4-58s35.8-32.2 58-22.4 32.2 35.8 22.4 58c-9.9 22.2-35.8 32.2-58 22.4z" fill="#98a9b7" stroke="#253f59" stroke-width="5"/><path d="m390.5 367c3 7.7 11.8 11.5 19.8 8.5l35.5-13.7c6.1-2.3 8.5-6.4 6.4-11.8l-4.1-10.7c-2.7-6.9-7.1-8.3-13.3-5.9l-35.5 13.7c-7.9 3.1-11.9 11.8-8.9 19.5z" fill="#a71831" stroke="#284356" stroke-linecap="round" stroke-linejoin="round" stroke-width="5"/></g></svg>