<svg enable-background="new 0 0 940.1 814.7" viewBox="0 0 940.1 814.7" xmlns="http://www.w3.org/2000/svg"><path d="m719 742h-497.9c-47.3 0-85.7-38.4-85.7-85.7v-497.9c0-47.3 38.4-85.7 85.7-85.7h497.9c47.3 0 85.7 38.4 85.7 85.7v497.9c0 47.3-38.4 85.7-85.7 85.7z" fill="none" stroke="#a71831" stroke-miterlimit="10" stroke-width="8"/><path d="m707 264.5s2-6.1-6-9.2l-180.9-45.5s-36.4-7.4-49.4 31.6l-52.6 211.7s-18.3 49 30.9 60.9l177.4 44.6s6.2.9 8.6-6.8z" fill="#e7b418"/><path d="m645.3 330.7-108.3-28.1c-4.2-1.1-6.7-5.4-5.6-9.6l8.1-31.4c1.1-4.2 5.4-6.7 9.6-5.6l108.3 28.1c4.2 1.1 6.7 5.4 5.6 9.6l-8.1 31.4c-1.1 4.2-5.4 6.7-9.6 5.6z" fill="#a71831"/><path d="m643.5 366.9-119-29.2c-2.8-.7-4.5-3.6-3.9-6.4.7-2.8 3.6-4.5 6.4-3.9l119 29.2c2.8.7 4.5 3.6 3.9 6.4-.7 2.9-3.6 4.6-6.4 3.9z" fill="#ecf0f1"/><path d="m612.3 375.1-64-15.7c-2.8-.7-4.5-3.6-3.9-6.4.7-2.8 3.6-4.5 6.4-3.9l64 15.7c2.8.7 4.5 3.6 3.9 6.4-.7 2.9-3.6 4.6-6.4 3.9z" fill="#ecf0f1"/><path d="m637.4 541.7-180.6-44.3c-10.5-2.6-16.6-15-13.5-27.7 3.1-12.7 14.2-20.9 24.8-18.3l180.9 44.3" fill="#bec3c7"/><path d="m639.5 533.4-180.1-44.2c-10.5-2.6-16.9-13.2-14.4-23.7 2.6-10.5 13.2-16.9 23.7-14.4l180.4 44.3" fill="#ecf0f1"/><path d="m577.4 504.1 31.3 8.2c1.2.3 2.4-.4 2.7-1.6.3-1.2-.4-2.4-1.6-2.7l-31.3-8.2c-1.2-.3-2.4.4-2.7 1.6-.3 1.2.4 2.4 1.6 2.7z" fill="#bec3c7"/><path d="m605.3 509-22.9-5.7-9.9 39.2 13.6-5.3 9.4 11.2z" fill="#a71831"/><path d="m453.5 278.1s-1.2-6.3-9.7-5.1l-180.2 48.3s-35.4 11.2-27.8 51.7l57 210.6s7.9 51.7 56.6 38.2l176.6-47.3s5.9-2.2 4.2-10.1z" fill="#a71831"/><path d="m431.9 365.9-108.2 28.1c-4.2 1.1-8.5-1.4-9.6-5.6l-8.1-31.4c-1.1-4.2 1.4-8.5 5.6-9.6l108.2-28.1c4.2-1.1 8.5 1.4 9.6 5.6l8.1 31.4c1.1 4.3-1.4 8.6-5.6 9.6z" fill="#ff9186"/><path d="m447.9 398.4-118.2 32.4c-2.8.8-5.7-.9-6.5-3.7-.8-2.8.9-5.7 3.7-6.5l118.2-32.4c2.8-.8 5.7.9 6.5 3.7.8 2.8-.9 5.7-3.7 6.5z" fill="#ecf0f1"/><path d="m424.6 420.8-63.6 17.4c-2.8.8-5.7-.9-6.5-3.7-.8-2.8.9-5.7 3.7-6.5l63.6-17.4c2.8-.8 5.7.9 6.5 3.7.8 2.8-.9 5.7-3.7 6.5z" fill="#ecf0f1"/><path d="m527.6 554.1-179.4 49.1c-10.4 2.9-21.8-5.1-25.2-17.7-3.4-12.6 2.3-25.2 12.7-28.1l179.7-49.2" fill="#bec3c7"/><path d="m525.4 545.8-178.8 49c-10.4 2.9-21.3-3.3-24.1-13.7-2.9-10.4 3.3-21.3 13.7-24.1l179.1-49.1" fill="#ecf0f1"/><path d="m456.9 550.5 31.3-8.1c1.2-.3 1.9-1.5 1.6-2.7-.3-1.2-1.5-1.9-2.7-1.6l-31.3 8.1c-1.2.3-1.9 1.5-1.6 2.7.3 1.1 1.5 1.9 2.7 1.6z" fill="#bec3c7"/><path d="m483.6 541.2-22.8 6.1 10.5 39.1 9.3-11.2 13.7 5.1z" fill="#ff9186"/></svg>