<svg enable-background="new 0 0 1022.8 813.2" viewBox="0 0 1022.8 813.2" xmlns="http://www.w3.org/2000/svg"><g stroke-miterlimit="10"><g stroke="#520e23" stroke-linecap="round" stroke-linejoin="round" stroke-width="9"><path d="m726.1 364.9-167.1 17.6-24.4-17.9 174.9-20.2-6.8-10.2-186.4 21.7-1 249.7 33.4 26.2 177.4-18.5z" fill="#d04e68"/><path d="m654 312.7v14.7l-152.9 14.1-.7 235.4-23.4 3-34.8-25.2.8-250.4 186.9-21 5.9 8.9-173.4 20.4 23 18.1z" fill="#fdda7e"/><path d="m581 261.5v14.6l-152.9 14.2-.7 235.4-23.4 2.9-34.8-25.1.8-250.4 186.9-21.1 5.9 9-173.4 20.4 23 18.1z" fill="#ff9065"/><path d="m485.4 181.4 5.5 9.3-173.5 19.9 23.8 18 167.2-17.8v14.7l-153.3 14.6-.5 235.4-22.9 2.9-35-25.1 1.4-250.7z" fill="#ed6485"/></g><path d="m760.3 741.3h-497.8c-47.3 0-85.7-38.4-85.7-85.7v-497.9c0-47.3 38.4-85.7 85.7-85.7h497.9c47.3 0 85.7 38.4 85.7 85.7v497.9c0 47.3-38.4 85.7-85.8 85.7z" fill="none" stroke="#a71831" stroke-width="8"/><path d="m687 399.4c-37.6 3.9-75.3 7.8-112.9 11.7.8 22.2 1.5 44.4 2.3 66.6 37.1-4.6 74.1-9.2 111.2-13.8-.2-21.5-.4-43-.6-64.5z" fill="#fff" stroke="#520e23" stroke-linecap="round" stroke-linejoin="round" stroke-width="9"/></g></svg>